# xmcd CD database file
#
# Track frame offsets:
#	150
#	18168
#	31228
#	51603
#	69705
#	105823
#	120103
#	142965
#	158173
#	209720
#	226945
#	243610
#	261233
#	292828
#
# Disc length: 4231 seconds
#
# Revision: 1
# Processed by: cddbd v1.4PL0 Copyright (c) Steve Scherf et al.
# Submitted via: CDex 1.40Release
#
DISCID=bd10850e
DTITLE=Larry Norman with Q-Stone - Live at Flevo
DYEAR=1989
DGENRE=Christian Rock
TTITLE0=My Feet are on the Rock
TTITLE1=Nightmare #49 (Part One)
TTITLE2=He Really Loves You
TTITLE3=Letters to the Church
TTITLE4=Medley (Everybody Work-Twist and Shout-Shout)
TTITLE5=Twelve Good Men
TTITLE6=Be Careful What You Sign
TTITLE7=Why Should the Devil
TTITLE8=Medley (Soon I Will be Home-It's Only Today that Counts-I am a Servant)
TTITLE9=The Outlaw
TTITLE10=Why Don't You Look Into Jesus
TTITLE11=Rock That Doesn't Roll
TTITLE12=Medley (I Wish We'd All Been Ready-UFO)
TTITLE13=Messiah
EXTD=YEAR: 1989
EXTT0=
EXTT1=
EXTT2=
EXTT3=
EXTT4=
EXTT5=
EXTT6=
EXTT7=
EXTT8=
EXTT9=
EXTT10=
EXTT11=
EXTT12=
EXTT13=
PLAYORDER=
